HIERARCHY
ROOT hip
{
  OFFSET -2.24527 106.865 -0.482383
  CHANNELS 6 Xposition Yposition Zposition Zrotation Xrotation Yrotation
  JOINT rButtock
  {
    OFFSET -4.19761 -0.599656 -0.299829
    CHANNELS 3 Zrotation Xrotation Yrotation
    JOINT rThigh
    {
      OFFSET 0 -1.49915 0
      CHANNELS 3 Zrotation Xrotation Yrotation
      JOINT rShin
      {
        OFFSET 0.699602 -17.6899 -1.09938
        CHANNELS 3 Zrotation Xrotation Yrotation
        JOINT rFoot
        {
          OFFSET -0.699602 -18.0897 -0.699602
          CHANNELS 3 Zrotation Xrotation Yrotation
          End Site
          {
            OFFSET 0 -2.09881 5.59681
          }
        }
      }
    }
  }
  JOINT abdomen
  {
    OFFSET 0 6.09653 0.699602
    CHANNELS 3 Zrotation Xrotation Yrotation
    JOINT chest
    {
      OFFSET 0 2.49857 -0.699602
      CHANNELS 3 Zrotation Xrotation Yrotation
      JOINT rCollar
      {
        OFFSET -1.49915 11.2936 -1.69903
        CHANNELS 3 Zrotation Xrotation Yrotation
        JOINT rShldr
        {
          OFFSET -4.89721 -0.299829 0.799545
          CHANNELS 3 Zrotation Xrotation Yrotation
          JOINT rForeArm
          {
            OFFSET -12.4216 -1.19922 0.931564
            CHANNELS 3 Zrotation Xrotation Yrotation
            JOINT rHand
            {
              OFFSET -9.86568 0.0998477 3.66582
              CHANNELS 3 Zrotation Xrotation Yrotation
              JOINT rMid1
              {
                OFFSET -2.99829 0.499717 1.09937
                CHANNELS 3 Zrotation Xrotation Yrotation
                JOINT rMid2
                {
                  OFFSET -1.45827 -0.0999391 0.600149
                  CHANNELS 3 Zrotation Xrotation Yrotation
                  End Site
                  {
                    OFFSET -1.0403 -0.0999474 0.399282
                  }
                }
              }
              JOINT rRing1
              {
                OFFSET -3.39807 0.399775 0.299829
                CHANNELS 3 Zrotation Xrotation Yrotation
                JOINT rRing2
                {
                  OFFSET -1.29926 -0.199888 0.399772
                  CHANNELS 3 Zrotation Xrotation Yrotation
                  End Site
                  {
                    OFFSET -0.899487 -0.0999402 0.199886
                  }
                }
              }
              JOINT rThumb1
              {
                OFFSET -0.399773 -0.39977 1.19932
                CHANNELS 3 Zrotation Xrotation Yrotation
                JOINT rThumb2
                {
                  OFFSET -0.998132 0 1.47145
                  CHANNELS 3 Zrotation Xrotation Yrotation
                  End Site
                  {
                    OFFSET -0.977841 -0.278837 0.829828
                  }
                }
              }
              JOINT rPinky1
              {
                OFFSET -3.29812 0.0999423 -0.399772
                CHANNELS 3 Zrotation Xrotation Yrotation
                JOINT rPinky2
                {
                  OFFSET -0.899492 -0.0999405 0
                  CHANNELS 3 Zrotation Xrotation Yrotation
                  End Site
                  {
                    OFFSET -0.999429 -0.0999421 0
                  }
                }
              }
              JOINT rIndex1
              {
                OFFSET -2.69847 0.399775 2.09881
                CHANNELS 3 Zrotation Xrotation Yrotation
                JOINT rIndex2
                {
                  OFFSET -1.33823 -0.200883 0.6843
                  CHANNELS 3 Zrotation Xrotation Yrotation
                  End Site
                  {
                    OFFSET -0.760569 0.00099747 0.415074
                  }
                }
              }
            }
          }
        }
      }
      JOINT neck
      {
        OFFSET 0 12.4929 -0.499715
        CHANNELS 3 Zrotation Xrotation Yrotation
        JOINT head
        {
          OFFSET 0 3.59795 0.299829
          CHANNELS 3 Zrotation Xrotation Yrotation
          JOINT leftEye
          {
            OFFSET 1.19932 3.69789 3.19818
            CHANNELS 3 Zrotation Xrotation Yrotation
            End Site
            {
              OFFSET 0 0 0
            }
          }
          JOINT rightEye
          {
            OFFSET -1.19932 3.69789 3.19818
            CHANNELS 3 Zrotation Xrotation Yrotation
            End Site
            {
              OFFSET 0 0 0
            }
          }
        }
      }
      JOINT lCollar
      {
        OFFSET 1.49915 11.2936 -1.69903
        CHANNELS 3 Zrotation Xrotation Yrotation
        JOINT lShldr
        {
          OFFSET 4.89721 -0.299833 0.799545
          CHANNELS 3 Zrotation Xrotation Yrotation
          JOINT lForeArm
          {
            OFFSET 12.4216 -1.19922 0.931564
            CHANNELS 3 Zrotation Xrotation Yrotation
            JOINT lHand
            {
              OFFSET 9.86568 0.0998482 3.66582
              CHANNELS 3 Zrotation Xrotation Yrotation
              JOINT lMid1
              {
                OFFSET 2.99829 0.499714 1.09937
                CHANNELS 3 Zrotation Xrotation Yrotation
                JOINT lMid2
                {
                  OFFSET 1.45827 -0.0999388 0.600149
                  CHANNELS 3 Zrotation Xrotation Yrotation
                  End Site
                  {
                    OFFSET 1.04031 -0.0999473 0.399282
                  }
                }
              }
              JOINT lPinky1
              {
                OFFSET 3.29812 0.0999421 -0.399772
                CHANNELS 3 Zrotation Xrotation Yrotation
                JOINT lPinky2
                {
                  OFFSET 0.899488 -0.0999427 0
                  CHANNELS 3 Zrotation Xrotation Yrotation
                  End Site
                  {
                    OFFSET 0.999427 -0.0999418 0
                  }
                }
              }
              JOINT lRing1
              {
                OFFSET 3.39806 0.399773 0.299829
                CHANNELS 3 Zrotation Xrotation Yrotation
                JOINT lRing2
                {
                  OFFSET 1.29926 -0.199886 0.399772
                  CHANNELS 3 Zrotation Xrotation Yrotation
                  End Site
                  {
                    OFFSET 0.899489 -0.0999425 0.199886
                  }
                }
              }
              JOINT lIndex1
              {
                OFFSET 2.69846 0.399775 2.09881
                CHANNELS 3 Zrotation Xrotation Yrotation
                JOINT lIndex2
                {
                  OFFSET 1.33823 -0.200884 0.6843
                  CHANNELS 3 Zrotation Xrotation Yrotation
                  End Site
                  {
                    OFFSET 0.760567 0.00099574 0.415074
                  }
                }
              }
              JOINT lThumb1
              {
                OFFSET 0.399772 -0.399773 1.19932
                CHANNELS 3 Zrotation Xrotation Yrotation
                JOINT lThumb2
                {
                  OFFSET 0.99813 0 1.47145
                  CHANNELS 3 Zrotation Xrotation Yrotation
                  End Site
                  {
                    OFFSET 0.97784 -0.27884 0.829828
                  }
                }
              }
            }
          }
        }
      }
    }
  }
  JOINT lButtock
  {
    OFFSET 4.19761 -0.599656 -0.299829
    CHANNELS 3 Zrotation Xrotation Yrotation
    JOINT lThigh
    {
      OFFSET 0 -1.49914 0
      CHANNELS 3 Zrotation Xrotation Yrotation
      JOINT lShin
      {
        OFFSET -0.699602 -17.6899 -1.09937
        CHANNELS 3 Zrotation Xrotation Yrotation
        JOINT lFoot
        {
          OFFSET 0.699602 -18.0897 -0.699602
          CHANNELS 3 Zrotation Xrotation Yrotation
          End Site
          {
            OFFSET 0 -2.0988 5.59681
          }
        }
      }
    }
  }
}
MOTION
Frames:	8
Frame Time:	0.0333333
1.12946 105.169 210.387 5.39486 13.2526 138.6 -0.00975517 -0.00969887 -0.00983547 -6.9344 -10.5781 12.6896 5.12052 43.1224 -8.43361 3.95638 -14.0559 0.886602 -0.00975517 -0.00975351 -0.00975351 4.19283 6.63549 -8.56292 12.6119 0.925129 1.92459 50.0876 -12.6754 3.23858 33.809 26.6763 108.4 -1.27378 -0.436518 -17.3054 1.84571 1.02832 28.013 -0.243675 0.394432 1.44876 1.84732 1.02338 28.0095 2.42749 -0.497759 4.4329 1.8765 1.0053 28.0257 -9.40282 -7.91099 -0.69994 1.83969 1.02684 28.0275 0.629682 -0.00953166 -0.000952466 1.8423 1.04377 28.0231 8.61214 -0.00168495 -1.79828 -7.94463 -7.8357 7.48544 23.8397 5.02131 -21.585 0 0 0 0 0 0 3.45191 -0.648888 -27.8627 -72.0066 8.25343 40.7763 45.7702 4.5229 -66.8394 -44.6661 5.82134 26.0717 -1.91292 1.08254 -28.0857 0.181555 0.424301 -1.45108 -1.89182 1.08192 -28.0686 -0.63046 -0.0099583 0.00100871 -1.90892 1.07501 -28.0899 -2.42863 -0.502432 -4.4324 -1.90212 1.09711 -28.0878 -8.62304 -0.0233164 1.79819 -1.87818 1.06148 -28.0917 9.40787 -7.94586 0.599069 -0.00975517 -0.00983547 -0.00969887 6.71078 -25.8733 1.35541 -7.16215 60.9028 4.76978 -20.3722 13.0381 3.66355 
0.762074 105.108 211.366 5.41437 12.2361 134.733 -0.00975517 -0.00969887 -0.00983547 -5.336 -13.1428 16.1395 5.12466 42.9166 -8.22838 4.64873 -13.3747 0.89051 -0.00975517 -0.00975351 -0.00975351 4.2222 6.17659 -8.7486 17.061 1.24283 1.13991 46.3982 -19.4531 2.50301 35.3366 34.7555 113.638 -5.35988 -1.35401 -15.5846 1.84571 1.02832 28.013 -0.243675 0.394432 1.44876 1.84732 1.02338 28.0095 2.4275 -0.49776 4.4329 1.8765 1.0053 28.0257 -9.40282 -7.91099 -0.69994 1.83969 1.02684 28.0275 0.629687 -0.00953166 -0.000952466 1.8423 1.04377 28.0231 8.61222 -0.00170731 -1.79828 -8.18129 -7.43628 7.70594 28.2372 9.20315 -26.9818 0 0 0 0 0 0 3.88514 -0.820349 -29.0093 -72.0495 4.89871 44.4772 45.7537 3.60225 -67.5741 -49.0118 5.93013 27.2563 -1.91292 1.08254 -28.0857 0.181555 0.424301 -1.45108 -1.89182 1.08192 -28.0686 -0.63043 -0.0099583 0.00100871 -1.90892 1.07501 -28.0899 -2.42866 -0.502432 -4.4324 -1.90212 1.09711 -28.0878 -8.62307 -0.0233164 1.79819 -1.87818 1.06148 -28.0917 9.40787 -7.94586 0.599069 -0.00975517 -0.00983547 -0.00969887 4.19778 -24.1956 -3.14801 -7.59289 62.3484 2.873 -26.6273 14.0677 4.96001 
0.115366 105.449 212.266 5.36548 11.3076 131.306 -0.00975517 -0.00969887 -0.00983547 -3.86585 -14.4087 20.2027 4.98168 40.1691 -8.33433 4.96651 -10.5915 0.682819 -0.00975517 -0.00975351 -0.00975351 5.05258 5.52253 -8.69012 17.0581 1.40387 2.11705 45.0917 -21.8934 0.693955 40.0495 43.2437 113.868 -9.5798 -2.71387 -10.3737 1.84571 1.02832 28.013 -0.243675 0.394432 1.44876 1.84733 1.02338 28.0095 2.4275 -0.497761 4.4329 1.8765 1.0053 28.0257 -9.40282 -7.91099 -0.69994 1.83969 1.02684 28.0275 0.62969 -0.00953166 -0.000952466 1.8423 1.04378 28.0231 8.61219 -0.00175313 -1.79828 -9.16712 -6.89775 7.62646 32.5948 13.2217 -32.4003 0 0 0 0 0 0 4.29157 -0.919196 -27.4206 -71.5418 4.20068 43.7233 39.8347 1.36938 -69.2511 -49.9904 3.35583 32.9056 -1.91292 1.08254 -28.0857 0.181555 0.424301 -1.45108 -1.89182 1.08192 -28.0686 -0.630401 -0.0099583 0.00100871 -1.90892 1.07501 -28.0899 -2.42868 -0.502432 -4.4324 -1.90212 1.09711 -28.0878 -8.62309 -0.0233164 1.79819 -1.87818 1.06148 -28.0917 9.40787 -7.94586 0.599069 -0.00975517 -0.00983547 -0.00969887 -0.103083 -20.9743 -8.81628 -7.38164 60.1424 0.373873 -33.8271 14.1758 6.26874 
-0.78813 106.069 213.137 5.36536 10.4768 128.24 -0.00975517 -0.00969887 -0.00983547 -2.75744 -14.6052 24.5387 4.74009 35.105 -8.94228 5.48308 -5.62063 0.275728 -0.00975517 -0.00975351 -0.00975351 6.21515 4.99533 -8.16311 16.2169 1.74236 4.80621 46.89 -14.1925 5.47792 27.5732 37.9935 125.462 -13.7074 -4.2408 -7.07524 1.84571 1.02832 28.013 -0.243675 0.394432 1.44876 1.84733 1.02338 28.0095 2.42748 -0.497762 4.4329 1.8765 1.0053 28.0257 -9.40282 -7.91099 -0.69994 1.83969 1.02684 28.0275 0.629684 -0.00953166 -0.000952466 1.8423 1.04378 28.0231 8.61217 -0.00181018 -1.79828 -10.4057 -6.43704 7.07432 36.2304 15.0389 -39.619 0 0 0 0 0 0 6.28549 -1.5466 -26.6731 -70.8837 2.02364 39.9758 35.187 0.406211 -70.2685 -49.138 3.53067 32.3815 -1.91292 1.08254 -28.0857 0.181555 0.424301 -1.45108 -1.89182 1.08192 -28.0686 -0.630371 -0.0099583 0.00100871 -1.90892 1.07501 -28.0899 -2.4287 -0.502432 -4.4324 -1.90212 1.09711 -28.0878 -8.62311 -0.0233164 1.79819 -1.87818 1.06148 -28.0917 9.40787 -7.94586 0.599069 -0.00975517 -0.00983547 -0.00969887 -6.47584 -17.2977 -16.166 -7.06826 57.1619 -1.97596 -35.3599 9.15582 4.7332 
-1.77391 106.788 214.036 5.73629 9.89019 125.524 -0.00975517 -0.00969887 -0.00983547 -2.74901 -13.0594 23.7706 2.1816 27.6631 -4.28554 5.88517 0.702749 -0.291616 -0.00975517 -0.00975351 -0.00975351 6.94805 4.83895 -7.28522 15.4289 1.97624 7.00704 47.7879 4.14441 20.7954 14.6547 19.5863 132.205 2.13403 0.03365 -25.7296 1.84571 1.02832 28.013 -0.243675 0.394432 1.44876 1.84732 1.02338 28.0095 2.42726 -0.497763 4.4329 1.8765 1.0053 28.0257 -9.40282 -7.91099 -0.69994 1.83969 1.02684 28.0275 0.62954 -0.00953166 -0.000952466 1.8423 1.04378 28.0231 8.61193 -0.00186453 -1.79828 -11.0509 -6.18254 6.17839 38.9064 15.0383 -46.3982 0 0 0 0 0 0 8.35144 -2.25594 -27.2512 -67.6251 -2.31504 36.01 31.098 -2.02862 -73.6134 -49.6658 2.95487 33.6916 -1.91292 1.08254 -28.0857 0.181555 0.424301 -1.45108 -1.89181 1.08192 -28.0686 -0.630342 -0.0099583 0.00100871 -1.90892 1.07501 -28.0899 -2.42872 -0.502432 -4.4324 -1.90212 1.09711 -28.0878 -8.62312 -0.0233164 1.79819 -1.87818 1.06148 -28.0917 9.40787 -7.94586 0.599069 -0.00975517 -0.00983547 -0.00969887 -13.0055 -11.6916 -25.5001 -6.29202 51.3981 -0.779736 -33.9102 4.77323 3.02197 
-2.6524 107.26 215.012 6.10728 9.23534 123.114 -0.00975517 -0.00969887 -0.00983547 -2.22513 -12.7298 22.2869 0.510348 22.3168 0.20162 5.85518 6.93381 -0.849834 -0.00975517 -0.00975351 -0.00975351 6.39197 4.74067 -6.12234 14.6745 2.22161 9.45024 45.8376 23.0078 33.8881 11.4492 9.21677 122.833 23.4697 -2.41917 -50.1494 1.84571 1.02832 28.013 -0.243675 0.394432 1.44876 1.84732 1.02338 28.0095 2.42705 -0.497764 4.4329 1.8765 1.0053 28.0257 -9.40282 -7.91099 -0.69994 1.83969 1.02684 28.0275 0.629425 -0.00953166 -0.000952466 1.8423 1.04378 28.0231 8.61171 -0.00190224 -1.79828 -10.2991 -5.78935 5.13046 40.7803 13.9404 -54.2101 0 0 0 0 0 0 11.298 -3.31144 -28.0876 -61.9715 -7.48991 33.8954 26.011 -6.74731 -81.919 -48.053 -0.112509 40.1372 -1.91292 1.08254 -28.0857 0.181555 0.424301 -1.45108 -1.89181 1.08192 -28.0686 -0.630312 -0.0099583 0.00100871 -1.90892 1.07501 -28.0899 -2.42872 -0.502432 -4.4324 -1.90212 1.09711 -28.0878 -8.62313 -0.0233164 1.79819 -1.87818 1.06148 -28.0917 9.40787 -7.94586 0.599069 -0.00975517 -0.00983547 -0.00969887 -15.8428 -7.07 -30.24 -5.68794 45.197 0.725275 -29.9716 1.81596 1.75968 
-3.41572 107.516 216.067 6.49774 8.48289 120.965 -0.00975517 -0.00969887 -0.00983547 -1.36935 -13.0716 22.245 0.168512 18.5303 2.47028 7.57669 11.5633 -1.50832 -0.00975517 -0.00975351 -0.00975351 4.37114 4.71016 -4.61837 14.2405 2.53132 12.1321 46.7144 34.5904 33.819 9.08814 4.24855 111.51 37.1423 -9.51001 -66.787 1.84571 1.02832 28.013 -0.243675 0.394432 1.44876 1.84732 1.02338 28.0095 2.42706 -0.497765 4.4329 1.8765 1.0053 28.0257 -9.40282 -7.91099 -0.69994 1.83969 1.02684 28.0275 0.629378 -0.00953166 -0.000952466 1.8423 1.04377 28.0231 8.61171 -0.00190301 -1.79828 -7.95079 -5.32785 3.88155 39.6786 12.0172 -60.2061 0 0 0 0 0 0 12.662 -3.51145 -25.6264 -51.8293 -10.2286 30.2476 24.929 -13.6417 -92.8597 -41.6895 0.0322364 39.6636 -1.91292 1.08254 -28.0857 0.181555 0.424301 -1.45108 -1.8918 1.08192 -28.0686 -0.630283 -0.0099583 0.00100871 -1.90892 1.07501 -28.0899 -2.42872 -0.502432 -4.4324 -1.90212 1.09711 -28.0878 -8.62314 -0.0233164 1.79819 -1.87818 1.06148 -28.0917 9.40787 -7.94586 0.599069 -0.00975517 -0.00983547 -0.00969887 -15.0453 -3.1035 -28.8456 -5.0896 37.5202 3.88869 -18.8735 -0.782227 0.580199 
-4.2577 107.468 217.15 6.89797 7.60353 119.003 -0.00975517 -0.00969887 -0.00983547 -0.516852 -14.4979 21.9567 0.223273 17.5952 4.27102 11.5064 11.4503 -2.04811 -0.00975517 -0.00975351 -0.00975351 2.23328 4.63069 -2.88939 13.6918 2.95428 15.9304 50.8015 35.167 25.1638 10.2739 3.95191 101.838 37.0682 -12.3609 -74.6218 1.84571 1.02832 28.013 -0.243675 0.394432 1.44876 1.84732 1.02338 28.0095 2.42707 -0.497766 4.4329 1.8765 1.0053 28.0257 -9.40282 -7.91099 -0.69994 1.83969 1.02684 28.0275 0.629339 -0.00953166 -0.000952466 1.8423 1.04377 28.0231 8.61172 -0.00190061 -1.79828 -5.34509 -4.89898 2.41261 34.5243 10.9004 -60.0833 0 0 0 0 0 0 13.6677 -3.22194 -20.3271 -43.7877 -11.0577 20.6437 0.230864 -3.85647 -110.027 -15.3921 -0.630298 42.3909 -1.91292 1.08254 -28.0857 0.181555 0.424301 -1.45108 -1.89179 1.08192 -28.0686 -0.630253 -0.0099583 0.00100871 -1.90892 1.07501 -28.0899 -2.42871 -0.502432 -4.4324 -1.90212 1.09711 -28.0878 -8.62313 -0.0233164 1.79819 -1.87818 1.06148 -28.0917 9.40787 -7.94586 0.599069 -0.00975517 -0.00983547 -0.00969887 -13.0414 0.697199 -24.8746 -3.69609 29.2129 6.14572 -8.15983 -2.14389 0.0805281 
